<svg width="123" height="32" viewBox="5 0 113 32" fill="none" xmlns="http://www.w3.org/2000/svg">
<path d="M22.1446 1.87569C19.647 4.44894 17.1495 7.01273 14.6519 9.58598C14.6235 9.6049 14.6046 9.62382 14.5762 9.6522L9.13644 15.092C8.61611 15.6123 8.61611 16.4732 9.13644 16.9935L14.2924 22.1495L7.94442 28.8002C6.96053 28.1285 6.02394 27.3528 5.09681 26.4162C-1.5539 19.7749 -1.78096 11.5632 4.91706 4.85574C10.2244 -0.451588 16.4872 -1.35033 22.1446 1.87569Z" fill="url(#paint0_linear)"/>
<path d="M26.6102 26.5392C21.3123 31.8276 15.0873 32.7736 9.46777 29.7368L11.7004 27.4001C13.4128 25.631 15.1157 23.8713 16.828 22.1022L18.5498 20.3804L21.9272 17.003C22.4475 16.4827 22.4475 15.6218 21.9272 15.1015L20.3757 13.55L16.8091 9.98336L23.0909 3.40833L23.6396 2.8407C24.5667 3.49347 25.4938 4.27869 26.3736 5.15851C32.9676 11.7335 33.2514 19.8885 26.6102 26.5392Z" fill="url(#paint1_linear)"/>
<path d="M15.9202 9.32131C15.9105 9.32131 15.9009 9.32131 15.9009 9.31165C15.9009 9.31165 15.9105 9.32131 15.9202 9.32131Z" fill="url(#paint2_linear)"/>
<defs>
<linearGradient id="paint0_linear" x1="18.1726" y1="-10.5733" x2="-24.1327" y2="81.8597" gradientUnits="userSpaceOnUse">
<stop stop-color="#00DECA"/>
<stop offset="0.37798" stop-color="#3A8AFA"/>
<stop offset="1" stop-color="#1A6AF4"/>
</linearGradient>
<linearGradient id="paint1_linear" x1="27.5129" y1="-7.66398" x2="-14.5324" y2="84.1523" gradientUnits="userSpaceOnUse">
<stop stop-color="#00DECA"/>
<stop offset="0.37798" stop-color="#3A8AFA"/>
<stop offset="1" stop-color="#1A6AF4"/>
</linearGradient>
<linearGradient id="paint2_linear" x1="15.9167" y1="9.3081" x2="15.9103" y2="9.34449" gradientUnits="userSpaceOnUse">
<stop stop-color="#00DECA"/>
<stop offset="0.37798" stop-color="#3A8AFA"/>
<stop offset="1" stop-color="#1A6AF4"/>
</linearGradient>
</defs>
</svg>
